<svg xmlns="http://www.w3.org/2000/svg" xmlns:xlink="http://www.w3.org/1999/xlink" width="500" zoomAndPan="magnify" viewBox="0 0 375 82.499998" height="110" preserveAspectRatio="xMidYMid meet" version="1.0"><defs><g/><clipPath id="c87d4b323a"><path d="M 2 2 L 80 2 L 80 81 L 2 81 Z M 2 2 " clip-rule="nonzero"/></clipPath><clipPath id="8d6559e7e8"><path d="M -15.742188 41.460938 L 41.1875 -15.46875 L 97.0625 40.40625 L 40.132812 97.339844 Z M -15.742188 41.460938 " clip-rule="nonzero"/></clipPath><clipPath id="fa35511293"><path d="M -15.742188 41.460938 L 41.1875 -15.46875 L 97.0625 40.40625 L 40.132812 97.339844 Z M -15.742188 41.460938 " clip-rule="nonzero"/></clipPath></defs><g clip-path="url(#c87d4b323a)"><g clip-path="url(#8d6559e7e8)"><g clip-path="url(#fa35511293)"><path fill="#ffffff" d="M 73.796875 62.082031 C 74.527344 60.957031 75.199219 59.804688 75.800781 58.625 C 75.769531 58.640625 75.738281 58.65625 75.710938 58.671875 C 79.679688 50.691406 80.769531 41.660156 78.761719 32.851562 C 76.460938 22.757812 70.367188 14.160156 61.601562 8.648438 C 52.832031 3.136719 42.445312 1.371094 32.351562 3.671875 C 22.253906 5.972656 13.660156 12.066406 8.148438 20.832031 C 2.636719 29.597656 0.867188 39.988281 3.167969 50.082031 C 5.46875 60.179688 11.566406 68.773438 20.332031 74.285156 C 29.097656 79.796875 39.484375 81.566406 49.582031 79.265625 C 56.789062 77.621094 63.230469 74.046875 68.335938 68.941406 C 70.378906 66.898438 72.207031 64.609375 73.785156 62.101562 C 73.789062 62.097656 73.792969 62.089844 73.796875 62.082031 Z M 61.226562 9.242188 C 69.835938 14.65625 75.820312 23.09375 78.078125 33.007812 C 80.121094 41.96875 78.898438 51.160156 74.652344 59.199219 C 60.375 66.050781 42.734375 63.5625 30.902344 51.726562 C 18.953125 39.777344 16.53125 21.910156 23.636719 7.558594 C 26.414062 6.144531 29.386719 5.066406 32.507812 4.355469 C 42.417969 2.09375 52.621094 3.832031 61.226562 9.242188 Z M 61.226562 9.242188 " fill-opacity="1" fill-rule="nonzero"/></g></g></g><g fill="#ffffff" fill-opacity="1"><g transform="translate(77.939622, 55.911141)"><g><path d="M 9.546875 -12.796875 L 9.546875 -4.828125 L 23.46875 -4.828125 L 23.46875 0 L 3.78125 0 L 3.78125 -29.140625 L 23.140625 -29.140625 L 23.140625 -24.328125 L 9.546875 -24.328125 L 9.546875 -17.5 L 21.4375 -17.5 L 21.4375 -12.796875 Z M 9.546875 -12.796875 "/></g></g></g><g fill="#ffffff" fill-opacity="1"><g transform="translate(102.990707, 55.911141)"><g><path d="M 12.8125 0.421875 C 10.6875 0.421875 8.804688 -0.0195312 7.171875 -0.90625 C 5.535156 -1.789062 4.257812 -3.085938 3.34375 -4.796875 C 2.425781 -6.515625 1.96875 -8.578125 1.96875 -10.984375 C 1.96875 -13.398438 2.425781 -15.460938 3.34375 -17.171875 C 4.257812 -18.890625 5.53125 -20.191406 7.15625 -21.078125 C 8.78125 -21.960938 10.632812 -22.40625 12.71875 -22.40625 C 17.351562 -22.40625 20.320312 -20.722656 21.625 -17.359375 L 17.84375 -14.65625 L 17.421875 -14.65625 C 16.972656 -15.6875 16.382812 -16.453125 15.65625 -16.953125 C 14.9375 -17.460938 13.957031 -17.71875 12.71875 -17.71875 C 11.125 -17.71875 9.878906 -17.164062 8.984375 -16.0625 C 8.097656 -14.957031 7.65625 -13.265625 7.65625 -10.984375 C 7.65625 -8.722656 8.101562 -7.035156 9 -5.921875 C 9.90625 -4.816406 11.175781 -4.265625 12.8125 -4.265625 C 14.007812 -4.265625 15.023438 -4.585938 15.859375 -5.234375 C 16.691406 -5.878906 17.285156 -6.804688 17.640625 -8.015625 L 18.0625 -8.046875 L 21.984375 -5.90625 C 21.429688 -4.039062 20.398438 -2.519531 18.890625 -1.34375 C 17.378906 -0.164062 15.351562 0.421875 12.8125 0.421875 Z M 12.8125 0.421875 "/></g></g></g><g fill="#ffffff" fill-opacity="1"><g transform="translate(125.650281, 55.911141)"><g><path d="M 9.125 0.421875 C 7.144531 0.421875 5.632812 -0.113281 4.59375 -1.1875 C 3.550781 -2.257812 3.03125 -3.882812 3.03125 -6.0625 L 3.03125 -30.828125 L 8.546875 -30.828125 L 8.546875 -6.28125 C 8.546875 -4.9375 9.109375 -4.265625 10.234375 -4.265625 C 10.546875 -4.265625 10.882812 -4.316406 11.25 -4.421875 L 11.515625 -4.34375 L 12.015625 -0.09375 C 11.710938 0.0625 11.304688 0.1875 10.796875 0.28125 C 10.296875 0.375 9.738281 0.421875 9.125 0.421875 Z M 9.125 0.421875 "/></g></g></g><g fill="#ffffff" fill-opacity="1"><g transform="translate(138.285434, 55.911141)"><g><path d="M 5.921875 -24.625 C 4.921875 -24.625 4.109375 -24.925781 3.484375 -25.53125 C 2.859375 -26.132812 2.546875 -26.914062 2.546875 -27.875 C 2.546875 -28.8125 2.859375 -29.582031 3.484375 -30.1875 C 4.109375 -30.789062 4.921875 -31.09375 5.921875 -31.09375 C 6.585938 -31.09375 7.175781 -30.953125 7.6875 -30.671875 C 8.207031 -30.398438 8.609375 -30.019531 8.890625 -29.53125 C 9.179688 -29.050781 9.328125 -28.5 9.328125 -27.875 C 9.328125 -27.25 9.179688 -26.6875 8.890625 -26.1875 C 8.609375 -25.695312 8.207031 -25.3125 7.6875 -25.03125 C 7.175781 -24.757812 6.585938 -24.625 5.921875 -24.625 Z M 3.171875 0 L 3.171875 -21.984375 L 8.6875 -21.984375 L 8.6875 0 Z M 3.171875 0 "/></g></g></g><g fill="#ffffff" fill-opacity="1"><g transform="translate(150.123417, 55.911141)"><g><path d="M 3.171875 8.90625 L 3.171875 -21.984375 L 8.6875 -21.984375 L 8.6875 -19.125 L 9.109375 -19.03125 C 9.765625 -20.15625 10.632812 -21 11.71875 -21.5625 C 12.8125 -22.125 14.085938 -22.40625 15.546875 -22.40625 C 17.316406 -22.40625 18.863281 -21.984375 20.1875 -21.140625 C 21.507812 -20.304688 22.535156 -19.035156 23.265625 -17.328125 C 24.003906 -15.617188 24.375 -13.503906 24.375 -10.984375 C 24.375 -8.472656 23.984375 -6.363281 23.203125 -4.65625 C 22.429688 -2.957031 21.351562 -1.6875 19.96875 -0.84375 C 18.59375 0 17 0.421875 15.1875 0.421875 C 13.820312 0.421875 12.640625 0.191406 11.640625 -0.265625 C 10.640625 -0.722656 9.796875 -1.4375 9.109375 -2.40625 L 8.6875 -2.328125 L 8.6875 8.90625 Z M 13.65625 -4.265625 C 15.300781 -4.265625 16.546875 -4.800781 17.390625 -5.875 C 18.242188 -6.957031 18.671875 -8.660156 18.671875 -10.984375 C 18.671875 -13.304688 18.242188 -15.007812 17.390625 -16.09375 C 16.546875 -17.175781 15.300781 -17.71875 13.65625 -17.71875 C 12.113281 -17.71875 10.890625 -17.160156 9.984375 -16.046875 C 9.078125 -14.929688 8.625 -13.242188 8.625 -10.984375 C 8.625 -8.734375 9.078125 -7.050781 9.984375 -5.9375 C 10.890625 -4.820312 12.113281 -4.265625 13.65625 -4.265625 Z M 13.65625 -4.265625 "/></g></g></g><g fill="#ffffff" fill-opacity="1"><g transform="translate(176.449975, 55.911141)"><g><path d="M 10.28125 0.421875 C 8.78125 0.421875 7.40625 0.242188 6.15625 -0.109375 C 4.90625 -0.460938 3.835938 -0.945312 2.953125 -1.5625 C 2.078125 -2.175781 1.425781 -2.882812 1 -3.6875 L 4.0625 -7 L 4.484375 -7 C 5.210938 -6.007812 6.078125 -5.269531 7.078125 -4.78125 C 8.078125 -4.289062 9.160156 -4.046875 10.328125 -4.046875 C 11.398438 -4.046875 12.207031 -4.238281 12.75 -4.625 C 13.300781 -5.007812 13.578125 -5.5625 13.578125 -6.28125 C 13.578125 -6.832031 13.378906 -7.296875 12.984375 -7.671875 C 12.597656 -8.054688 11.960938 -8.359375 11.078125 -8.578125 L 8.171875 -9.265625 C 5.992188 -9.785156 4.398438 -10.578125 3.390625 -11.640625 C 2.390625 -12.710938 1.890625 -14.078125 1.890625 -15.734375 C 1.890625 -17.097656 2.238281 -18.285156 2.9375 -19.296875 C 3.632812 -20.304688 4.617188 -21.078125 5.890625 -21.609375 C 7.160156 -22.140625 8.640625 -22.40625 10.328125 -22.40625 C 12.304688 -22.40625 13.945312 -22.117188 15.25 -21.546875 C 16.550781 -20.972656 17.566406 -20.207031 18.296875 -19.25 L 15.34375 -16.0625 L 14.953125 -16.0625 C 14.335938 -16.757812 13.644531 -17.265625 12.875 -17.578125 C 12.113281 -17.898438 11.265625 -18.0625 10.328125 -18.0625 C 8.148438 -18.0625 7.0625 -17.382812 7.0625 -16.03125 C 7.0625 -15.457031 7.257812 -14.988281 7.65625 -14.625 C 8.0625 -14.269531 8.78125 -13.976562 9.8125 -13.75 L 12.515625 -13.15625 C 14.753906 -12.675781 16.382812 -11.90625 17.40625 -10.84375 C 18.4375 -9.789062 18.953125 -8.375 18.953125 -6.59375 C 18.953125 -5.195312 18.609375 -3.96875 17.921875 -2.90625 C 17.234375 -1.84375 16.238281 -1.019531 14.9375 -0.4375 C 13.632812 0.132812 12.082031 0.421875 10.28125 0.421875 Z M 10.28125 0.421875 "/></g></g></g><g fill="#ffffff" fill-opacity="1"><g transform="translate(196.718036, 55.911141)"><g><path d="M 21.734375 -9.75 L 7.59375 -9.75 C 7.75 -7.832031 8.289062 -6.4375 9.21875 -5.5625 C 10.15625 -4.695312 11.425781 -4.265625 13.03125 -4.265625 C 14.300781 -4.265625 15.328125 -4.5 16.109375 -4.96875 C 16.890625 -5.445312 17.519531 -6.160156 18 -7.109375 L 18.421875 -7.109375 L 22.09375 -4.765625 C 21.375 -3.222656 20.289062 -1.972656 18.84375 -1.015625 C 17.394531 -0.0546875 15.457031 0.421875 13.03125 0.421875 C 10.757812 0.421875 8.796875 -0.0078125 7.140625 -0.875 C 5.492188 -1.738281 4.21875 -3.023438 3.3125 -4.734375 C 2.414062 -6.441406 1.96875 -8.523438 1.96875 -10.984375 C 1.96875 -13.484375 2.4375 -15.585938 3.375 -17.296875 C 4.320312 -19.015625 5.597656 -20.296875 7.203125 -21.140625 C 8.816406 -21.984375 10.628906 -22.40625 12.640625 -22.40625 C 15.742188 -22.40625 18.125 -21.582031 19.78125 -19.9375 C 21.4375 -18.289062 22.265625 -15.867188 22.265625 -12.671875 C 22.265625 -11.515625 22.226562 -10.617188 22.15625 -9.984375 Z M 16.984375 -13.3125 C 16.929688 -14.988281 16.539062 -16.207031 15.8125 -16.96875 C 15.09375 -17.738281 14.035156 -18.125 12.640625 -18.125 C 9.847656 -18.125 8.207031 -16.519531 7.71875 -13.3125 Z M 16.984375 -13.3125 "/></g></g></g><g fill="#ffffff" fill-opacity="1"><g transform="translate(220.613224, 55.911141)"><g/></g></g><g fill="#ffffff" fill-opacity="1"><g transform="translate(230.239058, 55.911141)"><g><path d="M 12.921875 0.421875 C 10.898438 0.421875 9.097656 0.171875 7.515625 -0.328125 C 5.941406 -0.828125 4.628906 -1.484375 3.578125 -2.296875 C 2.535156 -3.109375 1.734375 -4 1.171875 -4.96875 L 4.34375 -8.828125 L 4.84375 -8.828125 C 5.71875 -7.523438 6.828125 -6.488281 8.171875 -5.71875 C 9.523438 -4.945312 11.109375 -4.5625 12.921875 -4.5625 C 14.460938 -4.5625 15.625 -4.882812 16.40625 -5.53125 C 17.1875 -6.1875 17.578125 -7.085938 17.578125 -8.234375 C 17.578125 -8.921875 17.453125 -9.5 17.203125 -9.96875 C 16.953125 -10.4375 16.535156 -10.832031 15.953125 -11.15625 C 15.367188 -11.488281 14.578125 -11.773438 13.578125 -12.015625 L 9.828125 -12.875 C 7.210938 -13.476562 5.257812 -14.472656 3.96875 -15.859375 C 2.6875 -17.242188 2.046875 -19.046875 2.046875 -21.265625 C 2.046875 -22.921875 2.457031 -24.367188 3.28125 -25.609375 C 4.113281 -26.859375 5.316406 -27.828125 6.890625 -28.515625 C 8.460938 -29.210938 10.347656 -29.5625 12.546875 -29.5625 C 14.785156 -29.5625 16.707031 -29.265625 18.3125 -28.671875 C 19.914062 -28.085938 21.269531 -27.179688 22.375 -25.953125 L 19.515625 -22.046875 L 19.015625 -22.046875 C 18.191406 -22.910156 17.25 -23.554688 16.1875 -23.984375 C 15.125 -24.421875 13.910156 -24.640625 12.546875 -24.640625 C 10.960938 -24.640625 9.753906 -24.359375 8.921875 -23.796875 C 8.097656 -23.242188 7.6875 -22.472656 7.6875 -21.484375 C 7.6875 -20.566406 7.972656 -19.835938 8.546875 -19.296875 C 9.128906 -18.753906 10.132812 -18.328125 11.5625 -18.015625 L 15.390625 -17.21875 C 18.222656 -16.625 20.273438 -15.613281 21.546875 -14.1875 C 22.828125 -12.757812 23.46875 -10.894531 23.46875 -8.59375 C 23.46875 -6.769531 23.070312 -5.179688 22.28125 -3.828125 C 21.5 -2.484375 20.316406 -1.4375 18.734375 -0.6875 C 17.148438 0.0507812 15.210938 0.421875 12.921875 0.421875 Z M 12.921875 0.421875 "/></g></g></g><g fill="#ffffff" fill-opacity="1"><g transform="translate(255.270213, 55.911141)"><g><path d="M 5.921875 -24.625 C 4.921875 -24.625 4.109375 -24.925781 3.484375 -25.53125 C 2.859375 -26.132812 2.546875 -26.914062 2.546875 -27.875 C 2.546875 -28.8125 2.859375 -29.582031 3.484375 -30.1875 C 4.109375 -30.789062 4.921875 -31.09375 5.921875 -31.09375 C 6.585938 -31.09375 7.175781 -30.953125 7.6875 -30.671875 C 8.207031 -30.398438 8.609375 -30.019531 8.890625 -29.53125 C 9.179688 -29.050781 9.328125 -28.5 9.328125 -27.875 C 9.328125 -27.25 9.179688 -26.6875 8.890625 -26.1875 C 8.609375 -25.695312 8.207031 -25.3125 7.6875 -25.03125 C 7.175781 -24.757812 6.585938 -24.625 5.921875 -24.625 Z M 3.171875 0 L 3.171875 -21.984375 L 8.6875 -21.984375 L 8.6875 0 Z M 3.171875 0 "/></g></g></g><g fill="#ffffff" fill-opacity="1"><g transform="translate(267.108196, 55.911141)"><g><path d="M 11.40625 9.328125 C 7.769531 9.328125 5.085938 8.796875 3.359375 7.734375 C 1.640625 6.671875 0.78125 5.191406 0.78125 3.296875 C 0.78125 2.140625 1.144531 1.191406 1.875 0.453125 C 2.613281 -0.285156 3.675781 -0.78125 5.0625 -1.03125 L 5.0625 -1.453125 C 4.320312 -1.910156 3.785156 -2.410156 3.453125 -2.953125 C 3.128906 -3.503906 2.96875 -4.148438 2.96875 -4.890625 C 2.96875 -6.648438 4.117188 -7.835938 6.421875 -8.453125 L 6.421875 -8.875 C 5.234375 -9.550781 4.335938 -10.390625 3.734375 -11.390625 C 3.140625 -12.390625 2.84375 -13.601562 2.84375 -15.03125 C 2.84375 -16.488281 3.175781 -17.769531 3.84375 -18.875 C 4.519531 -19.988281 5.503906 -20.851562 6.796875 -21.46875 C 8.097656 -22.09375 9.65625 -22.40625 11.46875 -22.40625 C 13.300781 -22.40625 14.757812 -22.085938 15.84375 -21.453125 C 16.519531 -22.429688 16.914062 -23.566406 17.03125 -24.859375 L 17.4375 -25.125 L 21.40625 -24.140625 C 21.289062 -23.085938 20.984375 -22.207031 20.484375 -21.5 C 19.992188 -20.789062 19.234375 -20.15625 18.203125 -19.59375 L 18.203125 -19.15625 C 19.441406 -18.0625 20.0625 -16.539062 20.0625 -14.59375 C 20.0625 -13.238281 19.71875 -12.019531 19.03125 -10.9375 C 18.351562 -9.863281 17.367188 -9.015625 16.078125 -8.390625 C 14.785156 -7.765625 13.25 -7.453125 11.46875 -7.453125 L 10.625 -7.46875 C 10.09375 -7.5 9.722656 -7.515625 9.515625 -7.515625 C 9.003906 -7.515625 8.601562 -7.378906 8.3125 -7.109375 C 8.03125 -6.835938 7.890625 -6.488281 7.890625 -6.0625 C 7.890625 -5.59375 8.078125 -5.226562 8.453125 -4.96875 C 8.828125 -4.707031 9.375 -4.566406 10.09375 -4.546875 L 15.015625 -4.359375 C 19.878906 -4.210938 22.3125 -2.125 22.3125 1.90625 C 22.3125 3.332031 21.945312 4.597656 21.21875 5.703125 C 20.5 6.816406 19.328125 7.695312 17.703125 8.34375 C 16.078125 9 13.976562 9.328125 11.40625 9.328125 Z M 11.46875 -11.328125 C 12.53125 -11.328125 13.359375 -11.640625 13.953125 -12.265625 C 14.554688 -12.890625 14.859375 -13.78125 14.859375 -14.9375 C 14.859375 -16.09375 14.554688 -16.976562 13.953125 -17.59375 C 13.359375 -18.207031 12.53125 -18.515625 11.46875 -18.515625 C 10.382812 -18.515625 9.550781 -18.207031 8.96875 -17.59375 C 8.382812 -16.976562 8.09375 -16.09375 8.09375 -14.9375 C 8.09375 -13.757812 8.382812 -12.863281 8.96875 -12.25 C 9.550781 -11.632812 10.382812 -11.328125 11.46875 -11.328125 Z M 11.40625 5.328125 C 13.289062 5.328125 14.660156 5.0625 15.515625 4.53125 C 16.378906 4 16.8125 3.304688 16.8125 2.453125 C 16.8125 1.765625 16.585938 1.253906 16.140625 0.921875 C 15.703125 0.597656 15.003906 0.425781 14.046875 0.40625 L 9.703125 0.203125 C 9.554688 0.203125 9.421875 0.191406 9.296875 0.171875 C 9.171875 0.160156 9.050781 0.15625 8.9375 0.15625 C 8 0.15625 7.285156 0.351562 6.796875 0.75 C 6.316406 1.15625 6.078125 1.707031 6.078125 2.40625 C 6.078125 3.34375 6.519531 4.0625 7.40625 4.5625 C 8.300781 5.070312 9.632812 5.328125 11.40625 5.328125 Z M 11.40625 5.328125 "/></g></g></g><g fill="#ffffff" fill-opacity="1"><g transform="translate(289.967062, 55.911141)"><g><path d="M 3.171875 0 L 3.171875 -21.984375 L 8.46875 -21.984375 L 8.46875 -18.765625 L 8.890625 -18.65625 C 10.253906 -21.15625 12.472656 -22.40625 15.546875 -22.40625 C 18.085938 -22.40625 19.953125 -21.710938 21.140625 -20.328125 C 22.328125 -18.953125 22.921875 -16.941406 22.921875 -14.296875 L 22.921875 0 L 17.40625 0 L 17.40625 -13.609375 C 17.40625 -15.078125 17.113281 -16.132812 16.53125 -16.78125 C 15.945312 -17.425781 15.007812 -17.75 13.71875 -17.75 C 12.132812 -17.75 10.898438 -17.234375 10.015625 -16.203125 C 9.128906 -15.179688 8.6875 -13.578125 8.6875 -11.390625 L 8.6875 0 Z M 3.171875 0 "/></g></g></g><g fill="#ffffff" fill-opacity="1"><g transform="translate(315.715671, 55.911141)"><g><path d="M 8.578125 0.421875 C 7.160156 0.421875 5.929688 0.160156 4.890625 -0.359375 C 3.859375 -0.878906 3.0625 -1.640625 2.5 -2.640625 C 1.945312 -3.640625 1.671875 -4.847656 1.671875 -6.265625 C 1.671875 -7.566406 1.945312 -8.65625 2.5 -9.53125 C 3.0625 -10.414062 3.925781 -11.140625 5.09375 -11.703125 C 6.269531 -12.273438 7.800781 -12.710938 9.6875 -13.015625 C 11 -13.234375 12 -13.46875 12.6875 -13.71875 C 13.375 -13.96875 13.835938 -14.25 14.078125 -14.5625 C 14.316406 -14.882812 14.4375 -15.289062 14.4375 -15.78125 C 14.4375 -16.488281 14.1875 -17.03125 13.6875 -17.40625 C 13.195312 -17.78125 12.382812 -17.96875 11.25 -17.96875 C 10.019531 -17.96875 8.851562 -17.691406 7.75 -17.140625 C 6.644531 -16.597656 5.691406 -15.878906 4.890625 -14.984375 L 4.484375 -14.984375 L 2.171875 -18.484375 C 3.285156 -19.710938 4.644531 -20.671875 6.25 -21.359375 C 7.863281 -22.054688 9.617188 -22.40625 11.515625 -22.40625 C 14.429688 -22.40625 16.539062 -21.785156 17.84375 -20.546875 C 19.144531 -19.316406 19.796875 -17.566406 19.796875 -15.296875 L 19.796875 -5.734375 C 19.796875 -4.753906 20.226562 -4.265625 21.09375 -4.265625 C 21.425781 -4.265625 21.75 -4.328125 22.0625 -4.453125 L 22.34375 -4.359375 L 22.75 -0.515625 C 22.4375 -0.316406 22.007812 -0.15625 21.46875 -0.03125 C 20.925781 0.09375 20.328125 0.15625 19.671875 0.15625 C 18.359375 0.15625 17.332031 -0.09375 16.59375 -0.59375 C 15.851562 -1.101562 15.328125 -1.894531 15.015625 -2.96875 L 14.59375 -3.015625 C 13.519531 -0.722656 11.515625 0.421875 8.578125 0.421875 Z M 10.328125 -3.703125 C 11.597656 -3.703125 12.613281 -4.128906 13.375 -4.984375 C 14.144531 -5.847656 14.53125 -7.046875 14.53125 -8.578125 L 14.53125 -10.8125 L 14.15625 -10.890625 C 13.820312 -10.617188 13.382812 -10.394531 12.84375 -10.21875 C 12.3125 -10.039062 11.539062 -9.863281 10.53125 -9.6875 C 9.332031 -9.488281 8.46875 -9.144531 7.9375 -8.65625 C 7.414062 -8.175781 7.15625 -7.488281 7.15625 -6.59375 C 7.15625 -5.65625 7.429688 -4.9375 7.984375 -4.4375 C 8.546875 -3.945312 9.328125 -3.703125 10.328125 -3.703125 Z M 10.328125 -3.703125 "/></g></g></g><g fill="#ffffff" fill-opacity="1"><g transform="translate(338.893405, 55.911141)"><g><path d="M 9.125 0.421875 C 7.144531 0.421875 5.632812 -0.113281 4.59375 -1.1875 C 3.550781 -2.257812 3.03125 -3.882812 3.03125 -6.0625 L 3.03125 -30.828125 L 8.546875 -30.828125 L 8.546875 -6.28125 C 8.546875 -4.9375 9.109375 -4.265625 10.234375 -4.265625 C 10.546875 -4.265625 10.882812 -4.316406 11.25 -4.421875 L 11.515625 -4.34375 L 12.015625 -0.09375 C 11.710938 0.0625 11.304688 0.1875 10.796875 0.28125 C 10.296875 0.375 9.738281 0.421875 9.125 0.421875 Z M 9.125 0.421875 "/></g></g></g><g fill="#ffffff" fill-opacity="1"><g transform="translate(351.528559, 55.911141)"><g><path d="M 10.28125 0.421875 C 8.78125 0.421875 7.40625 0.242188 6.15625 -0.109375 C 4.90625 -0.460938 3.835938 -0.945312 2.953125 -1.5625 C 2.078125 -2.175781 1.425781 -2.882812 1 -3.6875 L 4.0625 -7 L 4.484375 -7 C 5.210938 -6.007812 6.078125 -5.269531 7.078125 -4.78125 C 8.078125 -4.289062 9.160156 -4.046875 10.328125 -4.046875 C 11.398438 -4.046875 12.207031 -4.238281 12.75 -4.625 C 13.300781 -5.007812 13.578125 -5.5625 13.578125 -6.28125 C 13.578125 -6.832031 13.378906 -7.296875 12.984375 -7.671875 C 12.597656 -8.054688 11.960938 -8.359375 11.078125 -8.578125 L 8.171875 -9.265625 C 5.992188 -9.785156 4.398438 -10.578125 3.390625 -11.640625 C 2.390625 -12.710938 1.890625 -14.078125 1.890625 -15.734375 C 1.890625 -17.097656 2.238281 -18.285156 2.9375 -19.296875 C 3.632812 -20.304688 4.617188 -21.078125 5.890625 -21.609375 C 7.160156 -22.140625 8.640625 -22.40625 10.328125 -22.40625 C 12.304688 -22.40625 13.945312 -22.117188 15.25 -21.546875 C 16.550781 -20.972656 17.566406 -20.207031 18.296875 -19.25 L 15.34375 -16.0625 L 14.953125 -16.0625 C 14.335938 -16.757812 13.644531 -17.265625 12.875 -17.578125 C 12.113281 -17.898438 11.265625 -18.0625 10.328125 -18.0625 C 8.148438 -18.0625 7.0625 -17.382812 7.0625 -16.03125 C 7.0625 -15.457031 7.257812 -14.988281 7.65625 -14.625 C 8.0625 -14.269531 8.78125 -13.976562 9.8125 -13.75 L 12.515625 -13.15625 C 14.753906 -12.675781 16.382812 -11.90625 17.40625 -10.84375 C 18.4375 -9.789062 18.953125 -8.375 18.953125 -6.59375 C 18.953125 -5.195312 18.609375 -3.96875 17.921875 -2.90625 C 17.234375 -1.84375 16.238281 -1.019531 14.9375 -0.4375 C 13.632812 0.132812 12.082031 0.421875 10.28125 0.421875 Z M 10.28125 0.421875 "/></g></g></g></svg>